<svg xmlns="http://www.w3.org/2000/svg" width="720" height="1280" viewBox="0 0 720 1280">
  <defs>
    <!-- Background gradient -->
    <linearGradient id="bgGrad" x1="0%" y1="0%" x2="0%" y2="100%">
      <stop offset="0%" style="stop-color:#0f0f23"/>
      <stop offset="100%" style="stop-color:#1a1a2e"/>
    </linearGradient>

    <!-- Header gradient -->
    <linearGradient id="headerGrad" x1="0%" y1="0%" x2="0%" y2="100%">
      <stop offset="0%" style="stop-color:#252550"/>
      <stop offset="100%" style="stop-color:#16162a"/>
    </linearGradient>

    <!-- Block gradients -->
    <linearGradient id="blueGrad" x1="0%" y1="0%" x2="0%" y2="100%">
      <stop offset="0%" style="stop-color:#7dd3fc"/>
      <stop offset="50%" style="stop-color:#0ea5e9"/>
      <stop offset="100%" style="stop-color:#0369a1"/>
    </linearGradient>
    <linearGradient id="greenGrad" x1="0%" y1="0%" x2="0%" y2="100%">
      <stop offset="0%" style="stop-color:#86efac"/>
      <stop offset="50%" style="stop-color:#22c55e"/>
      <stop offset="100%" style="stop-color:#15803d"/>
    </linearGradient>
    <linearGradient id="yellowGrad" x1="0%" y1="0%" x2="0%" y2="100%">
      <stop offset="0%" style="stop-color:#fde047"/>
      <stop offset="50%" style="stop-color:#eab308"/>
      <stop offset="100%" style="stop-color:#a16207"/>
    </linearGradient>
    <linearGradient id="redGrad" x1="0%" y1="0%" x2="0%" y2="100%">
      <stop offset="0%" style="stop-color:#fca5a5"/>
      <stop offset="50%" style="stop-color:#ef4444"/>
      <stop offset="100%" style="stop-color:#b91c1c"/>
    </linearGradient>
    <linearGradient id="purpleGrad" x1="0%" y1="0%" x2="0%" y2="100%">
      <stop offset="0%" style="stop-color:#d8b4fe"/>
      <stop offset="50%" style="stop-color:#a855f7"/>
      <stop offset="100%" style="stop-color:#7e22ce"/>
    </linearGradient>
    <linearGradient id="orangeGrad" x1="0%" y1="0%" x2="0%" y2="100%">
      <stop offset="0%" style="stop-color:#fdba74"/>
      <stop offset="50%" style="stop-color:#f97316"/>
      <stop offset="100%" style="stop-color:#c2410c"/>
    </linearGradient>

    <!-- Ball gradient -->
    <radialGradient id="ballGrad" cx="35%" cy="35%" r="60%">
      <stop offset="0%" style="stop-color:#ffffff"/>
      <stop offset="30%" style="stop-color:#ff6b6b"/>
      <stop offset="100%" style="stop-color:#c92a2a"/>
    </radialGradient>

    <!-- Launch point gradient -->
    <radialGradient id="launchGrad" cx="40%" cy="40%" r="60%">
      <stop offset="0%" style="stop-color:#fef08a"/>
      <stop offset="100%" style="stop-color:#f59e0b"/>
    </radialGradient>

    <!-- Button gradient -->
    <linearGradient id="buttonGrad" x1="0%" y1="0%" x2="0%" y2="100%">
      <stop offset="0%" style="stop-color:#4f46e5"/>
      <stop offset="100%" style="stop-color:#3730a3"/>
    </linearGradient>

    <!-- Power-up glow -->
    <filter id="glow">
      <feGaussianBlur stdDeviation="3" result="coloredBlur"/>
      <feMerge>
        <feMergeNode in="coloredBlur"/>
        <feMergeNode in="SourceGraphic"/>
      </feMerge>
    </filter>
  </defs>

  <!-- Background -->
  <rect width="720" height="1280" fill="url(#bgGrad)"/>

  <!-- Subtle grid pattern -->
  <g stroke="#ffffff" stroke-width="0.5" opacity="0.03">
    <line x1="0" y1="120" x2="720" y2="120"/>
    <line x1="0" y1="180" x2="720" y2="180"/>
    <line x1="0" y1="240" x2="720" y2="240"/>
    <line x1="0" y1="300" x2="720" y2="300"/>
    <line x1="0" y1="360" x2="720" y2="360"/>
    <line x1="0" y1="420" x2="720" y2="420"/>
    <line x1="120" y1="100" x2="120" y2="1100"/>
    <line x1="240" y1="100" x2="240" y2="1100"/>
    <line x1="360" y1="100" x2="360" y2="1100"/>
    <line x1="480" y1="100" x2="480" y2="1100"/>
    <line x1="600" y1="100" x2="600" y2="1100"/>
  </g>

  <!-- Header bar -->
  <rect x="0" y="0" width="720" height="90" fill="url(#headerGrad)"/>
  <line x1="0" y1="90" x2="720" y2="90" stroke="#3f3f7a" stroke-width="2"/>

  <!-- Score section -->
  <text x="30" y="38" fill="#9ca3af" font-family="Arial, sans-serif" font-size="14" font-weight="500">SCORE</text>
  <text x="30" y="68" fill="#ffffff" font-family="Arial, sans-serif" font-size="28" font-weight="bold">12,450</text>

  <!-- Level badge -->
  <rect x="300" y="20" width="120" height="50" rx="25" fill="url(#buttonGrad)" opacity="0.9"/>
  <text x="360" y="52" fill="#ffffff" font-family="Arial, sans-serif" font-size="18" font-weight="bold" text-anchor="middle">LEVEL 8</text>

  <!-- Ball count section -->
  <text x="690" y="38" fill="#9ca3af" font-family="Arial, sans-serif" font-size="14" font-weight="500" text-anchor="end">BALLS</text>
  <g>
    <circle cx="620" cy="58" r="10" fill="url(#ballGrad)" stroke="#a61e1e" stroke-width="0.5"/>
    <text x="690" y="68" fill="#ffffff" font-family="Arial, sans-serif" font-size="28" font-weight="bold" text-anchor="end">x17</text>
  </g>

  <!-- High score -->
  <text x="360" y="85" fill="#6b7280" font-family="Arial, sans-serif" font-size="11" text-anchor="middle">HIGH SCORE: 45,200</text>

  <!-- Game area blocks -->

  <!-- Row 1 - Red (high health) -->
  <g transform="translate(16, 120)">
    <rect x="0" y="0" width="56" height="56" rx="8" fill="url(#redGrad)" stroke="#991b1b" stroke-width="2"/>
    <rect x="6" y="4" width="44" height="10" rx="4" fill="rgba(255,255,255,0.25)"/>
    <text x="28" y="40" fill="#ffffff" font-family="Arial, sans-serif" font-size="20" font-weight="bold" text-anchor="middle">24</text>
  </g>
  <g transform="translate(136, 120)">
    <rect x="0" y="0" width="56" height="56" rx="8" fill="url(#redGrad)" stroke="#991b1b" stroke-width="2"/>
    <rect x="6" y="4" width="44" height="10" rx="4" fill="rgba(255,255,255,0.25)"/>
    <text x="28" y="40" fill="#ffffff" font-family="Arial, sans-serif" font-size="20" font-weight="bold" text-anchor="middle">19</text>
  </g>
  <g transform="translate(256, 120)">
    <rect x="0" y="0" width="56" height="56" rx="8" fill="url(#redGrad)" stroke="#991b1b" stroke-width="2"/>
    <rect x="6" y="4" width="44" height="10" rx="4" fill="rgba(255,255,255,0.25)"/>
    <text x="28" y="40" fill="#ffffff" font-family="Arial, sans-serif" font-size="20" font-weight="bold" text-anchor="middle">21</text>
  </g>
  <g transform="translate(408, 120)">
    <rect x="0" y="0" width="56" height="56" rx="8" fill="url(#redGrad)" stroke="#991b1b" stroke-width="2"/>
    <rect x="6" y="4" width="44" height="10" rx="4" fill="rgba(255,255,255,0.25)"/>
    <text x="28" y="40" fill="#ffffff" font-family="Arial, sans-serif" font-size="20" font-weight="bold" text-anchor="middle">18</text>
  </g>
  <g transform="translate(528, 120)">
    <rect x="0" y="0" width="56" height="56" rx="8" fill="url(#redGrad)" stroke="#991b1b" stroke-width="2"/>
    <rect x="6" y="4" width="44" height="10" rx="4" fill="rgba(255,255,255,0.25)"/>
    <text x="28" y="40" fill="#ffffff" font-family="Arial, sans-serif" font-size="20" font-weight="bold" text-anchor="middle">22</text>
  </g>
  <g transform="translate(648, 120)">
    <rect x="0" y="0" width="56" height="56" rx="8" fill="url(#redGrad)" stroke="#991b1b" stroke-width="2"/>
    <rect x="6" y="4" width="44" height="10" rx="4" fill="rgba(255,255,255,0.25)"/>
    <text x="28" y="40" fill="#ffffff" font-family="Arial, sans-serif" font-size="20" font-weight="bold" text-anchor="middle">17</text>
  </g>

  <!-- Row 2 - Orange -->
  <g transform="translate(76, 186)">
    <rect x="0" y="0" width="56" height="56" rx="8" fill="url(#orangeGrad)" stroke="#9a3412" stroke-width="2"/>
    <rect x="6" y="4" width="44" height="10" rx="4" fill="rgba(255,255,255,0.25)"/>
    <text x="28" y="40" fill="#ffffff" font-family="Arial, sans-serif" font-size="20" font-weight="bold" text-anchor="middle">12</text>
  </g>
  <g transform="translate(196, 186)">
    <rect x="0" y="0" width="56" height="56" rx="8" fill="url(#orangeGrad)" stroke="#9a3412" stroke-width="2"/>
    <rect x="6" y="4" width="44" height="10" rx="4" fill="rgba(255,255,255,0.25)"/>
    <text x="28" y="40" fill="#ffffff" font-family="Arial, sans-serif" font-size="20" font-weight="bold" text-anchor="middle">14</text>
  </g>
  <g transform="translate(348, 186)">
    <rect x="0" y="0" width="56" height="56" rx="8" fill="url(#orangeGrad)" stroke="#9a3412" stroke-width="2"/>
    <rect x="6" y="4" width="44" height="10" rx="4" fill="rgba(255,255,255,0.25)"/>
    <text x="28" y="40" fill="#ffffff" font-family="Arial, sans-serif" font-size="20" font-weight="bold" text-anchor="middle">11</text>
  </g>
  <g transform="translate(468, 186)">
    <rect x="0" y="0" width="56" height="56" rx="8" fill="url(#orangeGrad)" stroke="#9a3412" stroke-width="2"/>
    <rect x="6" y="4" width="44" height="10" rx="4" fill="rgba(255,255,255,0.25)"/>
    <text x="28" y="40" fill="#ffffff" font-family="Arial, sans-serif" font-size="20" font-weight="bold" text-anchor="middle">15</text>
  </g>
  <g transform="translate(588, 186)">
    <rect x="0" y="0" width="56" height="56" rx="8" fill="url(#orangeGrad)" stroke="#9a3412" stroke-width="2"/>
    <rect x="6" y="4" width="44" height="10" rx="4" fill="rgba(255,255,255,0.25)"/>
    <text x="28" y="40" fill="#ffffff" font-family="Arial, sans-serif" font-size="20" font-weight="bold" text-anchor="middle">13</text>
  </g>

  <!-- Row 3 - Yellow -->
  <g transform="translate(16, 252)">
    <rect x="0" y="0" width="56" height="56" rx="8" fill="url(#yellowGrad)" stroke="#854d0e" stroke-width="2"/>
    <rect x="6" y="4" width="44" height="10" rx="4" fill="rgba(255,255,255,0.25)"/>
    <text x="28" y="40" fill="#ffffff" font-family="Arial, sans-serif" font-size="20" font-weight="bold" text-anchor="middle">8</text>
  </g>
  <g transform="translate(136, 252)">
    <rect x="0" y="0" width="56" height="56" rx="8" fill="url(#yellowGrad)" stroke="#854d0e" stroke-width="2"/>
    <rect x="6" y="4" width="44" height="10" rx="4" fill="rgba(255,255,255,0.25)"/>
    <text x="28" y="40" fill="#ffffff" font-family="Arial, sans-serif" font-size="20" font-weight="bold" text-anchor="middle">6</text>
  </g>
  <g transform="translate(256, 252)">
    <rect x="0" y="0" width="56" height="56" rx="8" fill="url(#yellowGrad)" stroke="#854d0e" stroke-width="2"/>
    <rect x="6" y="4" width="44" height="10" rx="4" fill="rgba(255,255,255,0.25)"/>
    <text x="28" y="40" fill="#ffffff" font-family="Arial, sans-serif" font-size="20" font-weight="bold" text-anchor="middle">9</text>
  </g>
  <g transform="translate(408, 252)">
    <rect x="0" y="0" width="56" height="56" rx="8" fill="url(#yellowGrad)" stroke="#854d0e" stroke-width="2"/>
    <rect x="6" y="4" width="44" height="10" rx="4" fill="rgba(255,255,255,0.25)"/>
    <text x="28" y="40" fill="#ffffff" font-family="Arial, sans-serif" font-size="20" font-weight="bold" text-anchor="middle">7</text>
  </g>
  <g transform="translate(528, 252)">
    <rect x="0" y="0" width="56" height="56" rx="8" fill="url(#yellowGrad)" stroke="#854d0e" stroke-width="2"/>
    <rect x="6" y="4" width="44" height="10" rx="4" fill="rgba(255,255,255,0.25)"/>
    <text x="28" y="40" fill="#ffffff" font-family="Arial, sans-serif" font-size="20" font-weight="bold" text-anchor="middle">5</text>
  </g>
  <g transform="translate(648, 252)">
    <rect x="0" y="0" width="56" height="56" rx="8" fill="url(#yellowGrad)" stroke="#854d0e" stroke-width="2"/>
    <rect x="6" y="4" width="44" height="10" rx="4" fill="rgba(255,255,255,0.25)"/>
    <text x="28" y="40" fill="#ffffff" font-family="Arial, sans-serif" font-size="20" font-weight="bold" text-anchor="middle">8</text>
  </g>

  <!-- Row 4 - Green -->
  <g transform="translate(76, 318)">
    <rect x="0" y="0" width="56" height="56" rx="8" fill="url(#greenGrad)" stroke="#166534" stroke-width="2"/>
    <rect x="6" y="4" width="44" height="10" rx="4" fill="rgba(255,255,255,0.25)"/>
    <text x="28" y="40" fill="#ffffff" font-family="Arial, sans-serif" font-size="20" font-weight="bold" text-anchor="middle">4</text>
  </g>
  <g transform="translate(316, 318)">
    <rect x="0" y="0" width="56" height="56" rx="8" fill="url(#greenGrad)" stroke="#166534" stroke-width="2"/>
    <rect x="6" y="4" width="44" height="10" rx="4" fill="rgba(255,255,255,0.25)"/>
    <text x="28" y="40" fill="#ffffff" font-family="Arial, sans-serif" font-size="20" font-weight="bold" text-anchor="middle">3</text>
  </g>
  <g transform="translate(468, 318)">
    <rect x="0" y="0" width="56" height="56" rx="8" fill="url(#greenGrad)" stroke="#166534" stroke-width="2"/>
    <rect x="6" y="4" width="44" height="10" rx="4" fill="rgba(255,255,255,0.25)"/>
    <text x="28" y="40" fill="#ffffff" font-family="Arial, sans-serif" font-size="20" font-weight="bold" text-anchor="middle">2</text>
  </g>
  <g transform="translate(588, 318)">
    <rect x="0" y="0" width="56" height="56" rx="8" fill="url(#greenGrad)" stroke="#166534" stroke-width="2"/>
    <rect x="6" y="4" width="44" height="10" rx="4" fill="rgba(255,255,255,0.25)"/>
    <text x="28" y="40" fill="#ffffff" font-family="Arial, sans-serif" font-size="20" font-weight="bold" text-anchor="middle">4</text>
  </g>

  <!-- Row 5 - Blue (low health) -->
  <g transform="translate(16, 384)">
    <rect x="0" y="0" width="56" height="56" rx="8" fill="url(#blueGrad)" stroke="#075985" stroke-width="2"/>
    <rect x="6" y="4" width="44" height="10" rx="4" fill="rgba(255,255,255,0.25)"/>
    <text x="28" y="40" fill="#ffffff" font-family="Arial, sans-serif" font-size="20" font-weight="bold" text-anchor="middle">1</text>
  </g>
  <g transform="translate(196, 384)">
    <rect x="0" y="0" width="56" height="56" rx="8" fill="url(#blueGrad)" stroke="#075985" stroke-width="2"/>
    <rect x="6" y="4" width="44" height="10" rx="4" fill="rgba(255,255,255,0.25)"/>
    <text x="28" y="40" fill="#ffffff" font-family="Arial, sans-serif" font-size="20" font-weight="bold" text-anchor="middle">2</text>
  </g>
  <g transform="translate(408, 384)">
    <rect x="0" y="0" width="56" height="56" rx="8" fill="url(#blueGrad)" stroke="#075985" stroke-width="2"/>
    <rect x="6" y="4" width="44" height="10" rx="4" fill="rgba(255,255,255,0.25)"/>
    <text x="28" y="40" fill="#ffffff" font-family="Arial, sans-serif" font-size="20" font-weight="bold" text-anchor="middle">1</text>
  </g>

  <!-- Power-up (extra balls) with glow -->
  <g transform="translate(316, 384)" filter="url(#glow)">
    <circle cx="28" cy="28" r="24" fill="#22c55e" opacity="0.3"/>
    <circle cx="28" cy="28" r="18" fill="#22c55e"/>
    <text x="28" y="34" fill="#ffffff" font-family="Arial, sans-serif" font-size="16" font-weight="bold" text-anchor="middle">+3</text>
  </g>

  <!-- Danger zone indicator -->
  <rect x="0" y="1080" width="720" height="4" fill="#ef4444" opacity="0.8"/>
  <rect x="0" y="1084" width="720" height="40" fill="#ef4444" opacity="0.1"/>
  <text x="360" y="1108" fill="#ef4444" font-family="Arial, sans-serif" font-size="12" font-weight="bold" text-anchor="middle" opacity="0.8">DANGER ZONE</text>

  <!-- Aiming trajectory -->
  <g opacity="0.6">
    <!-- Main line -->
    <line x1="360" y1="1200" x2="120" y2="700" stroke="#22c55e" stroke-width="3" stroke-dasharray="12,6"/>
    <!-- Bounce point -->
    <circle cx="120" cy="700" r="8" fill="#22c55e"/>
    <!-- Second segment -->
    <line x1="120" y1="700" x2="600" y2="300" stroke="#22c55e" stroke-width="3" stroke-dasharray="12,6"/>
    <!-- Second bounce -->
    <circle cx="600" cy="300" r="8" fill="#22c55e"/>
    <!-- Third segment -->
    <line x1="600" y1="300" x2="250" y2="120" stroke="#22c55e" stroke-width="3" stroke-dasharray="12,6"/>
  </g>

  <!-- Flying balls with slight trail effect -->
  <circle cx="180" cy="580" r="12" fill="url(#ballGrad)" stroke="#a61e1e" stroke-width="1"/>
  <circle cx="400" cy="500" r="12" fill="url(#ballGrad)" stroke="#a61e1e" stroke-width="1"/>
  <circle cx="550" cy="620" r="12" fill="url(#ballGrad)" stroke="#a61e1e" stroke-width="1"/>
  <circle cx="280" cy="750" r="12" fill="url(#ballGrad)" stroke="#a61e1e" stroke-width="1"/>
  <circle cx="480" cy="820" r="12" fill="url(#ballGrad)" stroke="#a61e1e" stroke-width="1"/>
  <circle cx="620" cy="900" r="12" fill="url(#ballGrad)" stroke="#a61e1e" stroke-width="1"/>

  <!-- Launch area -->
  <rect x="0" y="1130" width="720" height="150" fill="#0a0a15" opacity="0.5"/>

  <!-- Launch point -->
  <circle cx="360" cy="1200" r="20" fill="url(#launchGrad)" stroke="#d97706" stroke-width="3"/>
  <circle cx="360" cy="1200" r="8" fill="#ffffff" opacity="0.5"/>

  <!-- Bottom UI bar -->
  <rect x="20" y="1240" width="140" height="30" rx="15" fill="#374151" opacity="0.8"/>
  <text x="90" y="1260" fill="#9ca3af" font-family="Arial, sans-serif" font-size="12" text-anchor="middle">Balls in play: 6</text>

  <!-- Pause button -->
  <g transform="translate(650, 1235)">
    <rect x="0" y="0" width="50" height="36" rx="8" fill="#374151" opacity="0.8"/>
    <rect x="16" y="8" width="6" height="20" rx="2" fill="#9ca3af"/>
    <rect x="28" y="8" width="6" height="20" rx="2" fill="#9ca3af"/>
  </g>

</svg>
